# xmcd
#
# Track frame offsets: 
#        182
#        15632
#        37002
#        60637
#        82010
#        100667
#        119390
#        137932
#        157295
#        175157
#        195540
#        217807
#
# Disc length: 3137 seconds
#
# Revision: 3
# Processed by: cddbd v1.5.2PL0 Copyright (c) Steve Scherf et al.
# Submitted via: ExactAudioCopyFreeDBPlugin 1.0
#
DISCID=a50c3f0c
DTITLE=Various Artist - Funk Classics: The 80's
DYEAR=1900
DGENRE=Funk
TTITLE0=Rick James - Super Freak
TTITLE1=George Clinton - Atomic Dog
TTITLE2=The Gap Band - You Dropped a Bomb on Me
TTITLE3=The Bar-Kays - Freakshow on the Dance Floor
TTITLE4=The Brothers Johnson - Stomp!
TTITLE5=Skyy - Call Me
TTITLE6=Kurtis Blow - Breaks
TTITLE7=Howard Johnson - So Fine
TTITLE8=Carl Carlton - She's a Bad Mama Jama
TTITLE9=Salt-N-Pepa - Push It
TTITLE10=Kool and the Gang - Get on It
TTITLE11=E.U. - Da' Butt
EXTD=
EXTT0=
EXTT1=
EXTT2=
EXTT3=
EXTT4=
EXTT5=
EXTT6=
EXTT7=
EXTT8=
EXTT9=
EXTT10=
EXTT11=
PLAYORDER=
